<mxfile host="app.diagrams.net" agent="Mozilla/5.0 (Windows NT 10.0; Win64; x64) AppleWebKit/537.36 (KHTML, like Gecko) Chrome/136.0.0.0 YaBrowser/25.6.0.0 Safari/537.36" version="28.0.6">
  <diagram name="Страница — 1" id="280DHnxjCJrquoxytLHR">
    <mxGraphModel dx="1042" dy="619" grid="1" gridSize="10" guides="1" tooltips="1" connect="1" arrows="1" fold="1" page="1" pageScale="1" pageWidth="827" pageHeight="1169" math="0" shadow="0">
      <root>
        <mxCell id="0" />
        <mxCell id="1" parent="0" />
        <mxCell id="UiPyx7W3rvPiLBDApA0m-3" style="edgeStyle=orthogonalEdgeStyle;rounded=0;orthogonalLoop=1;jettySize=auto;html=1;entryX=0.5;entryY=0;entryDx=0;entryDy=0;" edge="1" parent="1" source="UiPyx7W3rvPiLBDApA0m-1" target="UiPyx7W3rvPiLBDApA0m-2">
          <mxGeometry relative="1" as="geometry" />
        </mxCell>
        <mxCell id="UiPyx7W3rvPiLBDApA0m-5" style="edgeStyle=orthogonalEdgeStyle;rounded=0;orthogonalLoop=1;jettySize=auto;html=1;entryX=0.5;entryY=0;entryDx=0;entryDy=0;" edge="1" parent="1" source="UiPyx7W3rvPiLBDApA0m-1" target="UiPyx7W3rvPiLBDApA0m-4">
          <mxGeometry relative="1" as="geometry" />
        </mxCell>
        <mxCell id="UiPyx7W3rvPiLBDApA0m-1" value="web-сервис учета времени работы сотрудников" style="rounded=1;whiteSpace=wrap;html=1;" vertex="1" parent="1">
          <mxGeometry x="291" y="40" width="246" height="60" as="geometry" />
        </mxCell>
        <mxCell id="UiPyx7W3rvPiLBDApA0m-2" value="Панель администратора&amp;nbsp;" style="rounded=1;whiteSpace=wrap;html=1;" vertex="1" parent="1">
          <mxGeometry x="80" y="160" width="120" height="80" as="geometry" />
        </mxCell>
        <mxCell id="UiPyx7W3rvPiLBDApA0m-4" value="Панель сотрудника" style="rounded=1;whiteSpace=wrap;html=1;" vertex="1" parent="1">
          <mxGeometry x="600" y="160" width="120" height="80" as="geometry" />
        </mxCell>
      </root>
    </mxGraphModel>
  </diagram>
</mxfile>
